<?xml version="1.0" encoding="utf-8" ?>
<svg xmlns="http://www.w3.org/2000/svg" xmlns:xlink="http://www.w3.org/1999/xlink" width="720" height="720">
	<path fill="#FCFCFB" transform="scale(0.703125 0.703125)" d="M0 0L1024 0L1024 1024L0 1024L0 0Z"/>
	<path transform="scale(0.703125 0.703125)" d="M188.306 189.593C191.432 189.365 194.619 189.398 197.722 189.861C209.347 191.597 230.045 200.104 236.939 209.916C240.684 215.246 240.089 224.413 238.456 230.504C237.432 234.325 235.713 238.016 235.092 241.936C234.435 246.071 235.766 250.449 234.92 254.559C233.991 259.067 224.027 276.883 219.928 279.049C216.77 280.717 209.6 277.66 206.305 276.621C205.485 279.437 204.985 282.33 204.423 285.206C206.942 289.725 223.932 303.937 228.634 308.362C233.648 298.565 236.834 288.583 243.311 279.436C241.639 278.394 240.202 277.272 239.113 275.597C237.173 272.612 236.845 269.86 237.574 266.445L238.836 265.771C238.615 264.649 238.095 262.933 238.237 261.81C238.392 260.591 238.856 260.019 239.776 259.277C240.553 259.334 241.145 259.344 241.928 259.251C240.583 257.677 238.812 255.864 238.469 253.753C237.868 250.046 239.037 243.984 241.08 240.95C244.645 235.655 240.231 231.506 242.66 226.294C245.887 224.229 268.196 223.888 272.076 224.988C274.888 225.784 276.52 229.846 277.816 232.234C281.549 231.539 285.269 231.306 289.054 231.064C289.93 230.102 290.682 229.538 291.772 228.864C293.318 228.904 293.974 229.085 295.195 230.069C301.347 235.027 300.705 235.419 301.118 242.618C301.343 242.957 301.424 243.467 301.795 243.636C304.069 244.671 338.449 236.941 344.91 238.824C345.956 239.128 345.952 239.128 346.473 240.132C345.77 243.601 340.94 244.941 338.84 247.6C336.965 249.975 336.04 252.913 335.736 255.894C334.355 269.397 344.72 270.151 345.402 275.009C345.128 275.932 345.006 276.605 344.278 277.291C341.612 279.802 311.131 275.686 305.818 275.297C305.639 275.555 305.445 275.804 305.279 276.072C302.714 280.228 297.484 282.347 293.91 285.846C285.502 294.075 282.724 306.461 278.108 316.957C280.297 322.144 284.008 326.522 286.035 331.813C282.032 335.187 277.881 339.97 273.122 342.114C271.307 346.572 269.55 351.066 267.659 355.492C265.24 361.153 261.242 367.727 255.196 369.963C245.435 373.573 229.293 364.218 220.522 360.175C220.196 375.609 220.4 391.449 221.498 406.85C222.454 420.27 224.108 433.705 225.368 447.109C232.19 441.53 238.953 435.601 246.574 431.12C262.233 421.912 283.43 415.554 301.516 420.308C309.853 422.5 316.595 427.746 320.837 435.252C329.07 449.819 325.39 470.999 320.328 485.986C318.588 491.136 315.862 496.041 314.374 501.234C314.775 502.221 315.039 502.678 316.095 503.163C319.852 504.89 329.909 501.541 333.662 499.822C341.93 496.036 352.545 486.549 357.186 478.752C360.031 473.972 362.495 462.902 364.367 457.233Q369.381 442.439 375.063 427.889L358.923 428.156C360.287 423.01 363.984 417.824 367.47 413.876C371.702 413.825 375.942 413.888 380.176 413.897C386.932 402.391 391.748 389.881 398.84 378.524C409.849 372.512 428.045 365.436 440.679 367.649C433.732 382.813 424.183 398.019 416.313 412.915C420.926 412.858 438.027 411.61 441.32 413.573C439.615 418.219 436.175 423.111 433.455 427.267C425.639 427.802 417.689 427.497 409.854 427.434C401.72 442.613 382.813 498.481 383.558 514.874C383.736 518.781 384.596 524.332 387.784 526.985C390.261 529.046 394.281 529.629 397.389 529.323C414.024 527.684 438.759 498.765 446.593 484.119C450.673 476.491 452.395 465.845 455.512 457.435C467.16 426.013 480.479 392.506 501.809 366.212C510.796 355.134 520.899 345.369 535.75 343.96C541.372 343.426 546.884 344.373 551.28 348.145C555.737 351.97 557.683 357.471 557.996 363.209C559.462 390.027 530.179 426.706 512.573 446.018C504.068 455.348 494.704 464.032 486.356 473.446C484.679 475.337 483.423 477.356 482.6 479.75C479.942 487.48 478.242 504.477 478.787 512.638C479.126 517.712 480.448 523.078 484.573 526.433C487.802 529.06 491.92 529.567 495.947 529.163C512.348 527.521 533.532 502.614 541.292 488.867C543.501 484.954 545.076 480.565 546.961 476.481C551.422 466.815 556.605 457.583 563.266 449.243C575.318 434.15 593.428 421.674 613.086 419.659C624.007 418.54 637.146 418.508 645.956 426.074C651.021 430.423 653.689 436.37 654.1 442.985C654.87 455.357 648.697 466.884 640.705 475.911C624.013 494.765 599.774 502.724 575.271 504.115C575.526 508.658 576.522 513.518 578.36 517.697Q578.616 518.289 578.9 518.867Q579.185 519.445 579.498 520.009Q579.811 520.573 580.151 521.12Q580.491 521.667 580.858 522.198Q581.225 522.728 581.617 523.239Q582.01 523.75 582.427 524.242Q582.844 524.733 583.285 525.203Q583.726 525.673 584.19 526.121Q584.653 526.569 585.138 526.994Q585.624 527.418 586.129 527.818Q586.635 528.218 587.159 528.593Q587.684 528.967 588.226 529.316Q588.768 529.664 589.327 529.985Q589.886 530.306 590.46 530.599Q591.034 530.893 591.622 531.157Q592.21 531.422 592.81 531.657C603.242 535.637 614.682 533.422 624.484 528.807C644.39 519.434 664.087 499.952 674.531 480.499C678.299 473.483 680.503 465.381 683.314 457.936C687.155 447.764 691.466 437.772 695.102 427.523C691.44 427.486 687.776 427.675 684.115 427.619C682.191 427.59 680.772 427.593 679.385 426.168C678.871 422.58 684.352 416.41 686.417 413.565L701.702 413.396C706.079 403.775 710.649 389.593 717.313 381.534C725.012 372.222 746.844 368.113 758.611 367.193C756.607 373.189 753.176 378.778 750.403 384.451Q743.371 398.779 736.853 413.348C745.371 413.75 753.902 413.258 762.42 413.893C760.03 417.301 757.939 421.25 755.132 424.315C753.811 425.756 752.291 426.709 750.378 427.128C746.907 427.888 734.949 427.115 730.422 427.189C722.374 445.818 697.739 502.363 704.119 520.342C705.327 523.747 708.273 527.003 711.602 528.424C716.599 530.557 722.482 529.55 727.291 527.407C743.472 520.198 763.328 495.642 771.224 479.649C774.259 473.502 776.072 466.348 778.429 459.888Q784.682 443.179 791.288 426.607C785.183 427.344 778.873 427.093 772.732 426.94C774.701 421.985 777.391 417.828 780.483 413.5L797.663 413.316C802.269 403.72 806.959 387.772 813.678 380.019C821.208 371.332 841.856 367.914 853.097 367.244L852.924 367.817C851.414 372.979 848.646 377.897 846.413 382.787C841.796 392.895 836.963 403.084 832.922 413.436C840.684 413.582 848.466 413.488 856.23 413.506Q852.973 419.965 849.863 426.495C842.003 426.872 834.167 426.853 826.3 426.778C816.585 446.544 800.709 485.92 798.765 507.904C798.239 513.844 798.427 520.683 802.625 525.368C805.047 528.069 808.561 529.507 812.154 529.637C821.762 529.986 829.556 522.959 836.148 516.931C845.224 508.395 853.981 497.148 860.169 486.269C862.629 481.945 864.351 477.191 866.581 472.741Q867.658 470.564 868.839 468.441Q870.019 466.317 871.301 464.254Q872.582 462.19 873.961 460.19Q875.341 458.191 876.815 456.26Q878.289 454.329 879.854 452.471Q881.419 450.613 883.072 448.833Q884.725 447.053 886.462 445.355Q888.199 443.656 890.015 442.043C904.602 428.943 924.472 419.304 944.47 420.558C952.961 421.09 961.911 423.972 967.601 430.624C972.446 436.288 974.085 443.803 973.528 451.096C972.632 462.826 964.914 473.385 956.201 480.78C938.948 495.422 913.593 503.412 891.076 501.67C891.823 511.555 894.251 521.867 901.924 528.792C907.259 533.607 914.407 534.763 921.355 534.492C942.614 533.663 964.954 516.945 978.831 501.63C982.837 497.21 985.954 492.025 990.032 487.681C993.25 484.253 997.278 484.825 1001.67 484.628C999.252 497.786 989.682 509.762 980.8 519.414C962.996 538.761 939.376 554.714 912.369 555.76C897.882 556.321 882.233 553.6 871.299 543.367Q870.507 542.619 869.753 541.833Q868.998 541.047 868.283 540.225Q867.568 539.403 866.894 538.547Q866.22 537.691 865.589 536.803Q864.958 535.915 864.371 534.997Q863.785 534.079 863.244 533.134Q862.703 532.188 862.208 531.217Q861.714 530.246 861.268 529.252Q860.822 528.258 860.426 527.244Q860.029 526.229 859.683 525.196Q859.336 524.163 859.041 523.115Q858.745 522.066 858.501 521.004Q858.258 519.942 858.067 518.87Q857.875 517.797 857.737 516.717Q857.598 515.636 857.513 514.55Q857.427 513.464 857.395 512.375Q852.388 519.014 846.831 525.201C834.78 538.613 817.505 553.824 798.478 554.671C790.637 555.02 782.163 552.777 776.359 547.28C766.271 537.723 766.015 522.086 765.496 509.197Q757.644 520.253 748.072 529.858C736.067 541.887 718.653 554.83 700.838 554.748C692.935 554.712 685.129 551.926 679.64 546.092C669.747 535.578 670.301 519.931 670.497 506.501C652.609 528.548 629.661 548.892 600.794 553.771C585.978 556.275 570.043 554.059 557.644 545.15C545.817 536.653 541.846 525.502 539.658 511.67C535.275 517.443 530.808 523.135 525.803 528.389C513.458 541.346 497.054 554.257 478.295 554.611C469.877 554.769 461.476 552.325 455.433 546.22C445.71 536.397 444.431 521.609 444.456 508.545C435.984 520.12 425.384 530.615 413.956 539.279C403.214 547.425 388.027 556.363 373.941 554.143C367.068 553.059 360.853 549.393 356.908 543.617C348.908 531.906 350.049 512.725 352.573 499.392C347.435 504.295 342.378 509.202 335.994 512.477C326.633 517.28 316.906 517.555 307.01 514.33C297.863 527.946 286.811 540.229 271.776 547.364C258.504 553.663 241.915 555.827 227.905 550.731C218.355 547.257 211.416 540.837 207.221 531.588C199.361 514.256 202.206 491.747 208.764 474.501C201.94 486.56 191.627 491.835 178.815 495.841C179.225 503.369 180.699 510.983 181.919 518.422C185.165 538.21 189.402 557.001 194.924 576.259C196.521 581.831 198.239 587.537 198.385 593.373C198.719 606.748 195.098 619.816 194.926 633.253Q194.669 655.085 196.516 676.841C196.941 681.501 199.088 686.332 199.077 690.937C199.07 693.465 197.495 692.933 196.827 694.623C195.567 697.813 197.607 705.159 198.196 708.614C199.092 713.875 199.804 719.49 201.982 724.397C211.419 745.661 241.31 750.994 243.68 756.481C244.118 757.494 243.935 758.526 243.501 759.523C242.1 762.742 238.932 764.299 235.798 765.428C216.501 772.38 204.867 766.028 186.754 761.027C181.711 759.634 175.921 759.55 171.217 757.156C160.208 751.554 174.237 733.841 174.935 725.953C175.768 716.547 171.623 705.451 168.78 696.552C166.949 696.523 165.318 696.638 163.655 695.793C161.282 692.664 163.681 687.082 163.266 683.342C162.008 671.992 158.714 660.933 157.677 649.458Q156.822 639.882 156.946 630.268C157.142 619.978 158.696 609.642 155.52 599.659C146.202 615.303 137.094 631.584 131.068 648.826Q126.868 661.218 124.091 674.004C122.979 679.009 122.206 684.236 120.667 689.125C120.46 689.784 120.082 690.014 119.601 690.493C118.374 690.657 117.489 690.704 116.434 691.403C113.619 697.742 107.23 725.17 108.523 731.212C110.521 740.548 124.101 746.844 131.525 751.39C134.975 753.502 142.123 756.993 142.676 761.409C142.841 762.724 142.208 763.881 141.263 764.74C137.023 768.59 128.96 768.864 123.468 768.489C114.256 767.861 104.726 763.901 95.6921 761.834C88.764 760.249 81.5666 759.554 74.7137 757.773C72.8699 757.293 69.825 756.642 68.642 755.129C66.0456 751.809 66.7908 746.25 67.844 742.431C69.3588 736.939 74.2547 733.518 76.9601 728.686C80.8614 721.719 85.2984 696.803 86.1448 688.837C85.4344 687.69 84.5785 686.471 84.121 685.199C83.2885 682.883 84.6674 680.731 85.656 678.71C88.3511 673.2 88.4793 665.173 89.5811 659.086Q91.2826 649.453 93.9102 640.031C97.8866 626.159 104.242 613.71 109.741 600.464C117.349 582.142 122.518 560.811 122.643 541.003C101.892 551.538 76.6186 558.408 53.6428 551.352C42.0974 547.807 32.9343 539.638 27.354 528.997C18.0925 511.336 19.5165 488.747 25.3046 470.214C39.8277 423.713 80.6259 369.513 124.204 346.662C132.761 322.733 139.835 290.364 154.354 269.496C159.513 262.081 167.718 257.67 172.32 250.963C172.435 250.795 172.546 250.626 172.659 250.457Q171.315 249.636 170.021 248.737C165.591 245.604 164.663 242.406 163.752 237.334C159.872 237.177 156.579 237 153.421 234.451C149.996 231.687 148.315 227.368 147.974 223.069C147.367 215.396 150.23 206.159 155.297 200.329C157.47 197.828 160.529 195.596 163.959 195.463C168.103 195.303 171.357 198.714 174.14 201.336C178.155 195.861 181.408 191.53 188.306 189.593Z"/>
	<path fill="#FCFCFB" transform="scale(0.703125 0.703125)" d="M174.89 276.063C176.867 276.242 178.633 276.562 180.489 277.293C197.477 283.985 220.754 307.576 233.515 320.817C236.356 323.766 240.828 327.379 242.596 330.94C245.263 336.313 241.422 342.886 243.609 347.186C243.969 347.894 243.956 347.691 244.802 347.953C247.739 344.453 248.422 338.632 250.058 334.384C251.115 331.64 252.627 328.978 254.009 326.387C258.868 331.058 263.627 335.842 268.424 340.576C266.301 347.741 263.771 356.099 258.532 361.67C256.677 363.643 253.955 365.611 251.173 365.884C234.489 367.517 186.939 333.083 165.782 334.476C164.457 334.563 163.77 334.723 162.862 335.681L163.107 336.916C165.306 338.848 175.36 340.313 178.777 341.453C189.504 345.031 199.811 350.749 210.027 355.604C211.517 368.073 209.499 386.126 208.947 398.998C208.284 414.445 207.652 429.862 206.754 445.3C206.354 452.18 206.191 459.204 205.4 466.047C204.57 473.228 202.037 478.051 196.241 482.537C181.669 493.814 159.487 495.546 141.878 493.264C123.626 491.189 105.224 482.964 92.2699 469.789C94.5369 462.479 96.3908 455.029 98.6685 447.709C102.183 436.414 106.085 425.23 109.277 413.837C111.619 405.475 116.178 381.892 119.647 375.903C122.849 370.374 130.801 365.416 135.999 361.886Q134.818 371.06 134.139 380.284C133.845 384.767 133.991 389.58 133.143 393.99C131.247 403.858 124.237 409.781 124.137 421.846C124.088 427.816 125.977 433.466 130.314 437.677C134.877 442.109 141.203 443.855 147.449 443.66C160.222 443.262 171.556 435.249 180.052 426.299C191.197 414.56 199.018 397.716 198.493 381.331C198.126 369.864 193.967 359.108 185.418 351.27C172.789 339.693 159.629 339.015 143.469 339.613C145.754 323.757 149.525 302.33 158.088 288.786C162.152 282.359 167.303 277.825 174.89 276.063Z"/>
	<path fill="#FCFCFB" transform="scale(0.703125 0.703125)" d="M111.841 383.91C112.896 389.937 89.8488 455.622 87.3244 471.57C91.0359 475.402 95.0714 478.92 99.025 482.498C102.827 497.851 112.004 510.535 118.697 524.623C109.731 528.632 101.742 530.574 91.8748 530.395C84.5225 529.598 78.0044 527.425 72.4831 522.308C64.608 515.008 61.2101 504.1 60.8683 493.602C59.7969 460.702 80.9941 424.094 100.344 398.356C104.027 393.458 107.655 388.394 111.841 383.91Z"/>
	<path fill="#FCFCFB" transform="scale(0.703125 0.703125)" d="M292.06 432.688C292.626 432.8 293.193 432.914 293.746 433.08C295.413 433.581 296.75 434.859 297.469 436.434C298.194 438.021 298.028 439.669 297.462 441.274C296.24 444.743 293.612 448.042 291.744 451.229C289.057 455.81 286.522 460.603 284.487 465.507C279.715 477.005 278.676 487.415 283.463 499.081C280.414 510.966 273.814 524.603 262.994 531.257C258.399 534.083 254.097 534.805 248.889 533.529Q247.232 532.769 245.771 531.678C240.628 527.869 238.563 520.804 237.761 514.722C234.995 493.743 243.173 471.508 255.947 455.069C264.921 443.522 277.322 434.467 292.06 432.688Z"/>
	<path fill="#FCFCFB" transform="scale(0.703125 0.703125)" d="M154.259 355.118C155.086 355.024 155.915 354.945 156.749 354.93C161.639 354.841 167.242 356.656 170.699 360.203C174.792 364.402 176.273 370.852 176.086 376.558C175.651 389.815 167.244 401.93 157.953 410.744C155.191 412.806 151.423 414.602 147.893 414.249C145.559 414.015 143.682 412.682 142.307 410.833C134.892 400.859 139.105 371.957 141.083 360.087C145.16 357.298 149.488 356.058 154.259 355.118Z"/>
	<path fill="#FCFCFB" transform="scale(0.703125 0.703125)" d="M231.413 217.874C233.008 219.143 233.79 220.609 234.201 222.587C234.889 225.894 235.624 230.754 233.676 233.736C232.417 233.476 231.185 233.287 229.911 233.13L229.161 233.941C229.07 235.314 229.14 236.655 228.339 237.831C227.59 237.849 226.989 237.802 226.242 237.669C225.988 237.623 225.736 237.57 225.484 237.521L224.95 238.246C225.164 240.535 225.982 242.135 227.742 243.618C228.836 243.732 228.949 243.64 229.935 243.122C230.113 242.383 230.265 241.673 230.364 240.917C230.392 240.7 230.415 240.483 230.441 240.266L231.071 240.392C232.647 245.086 231.678 251.374 229.951 255.886C227.626 254.557 225.213 253.541 222.751 252.505C224.875 255.003 227.424 257.25 229.777 259.538C227.864 258.681 225.947 257.883 223.987 257.14L223.388 257.434L223.41 258.314C224.561 259.717 226.173 260.356 227.76 261.156C226.25 262.525 223.506 261.983 221.737 263.411L221.964 264.155C222.861 264.723 223.68 265.267 224.471 265.976C223.921 267.738 223.386 269.456 222.278 270.96C220.856 272.892 218.837 274.09 216.442 274.327C211.414 274.826 204.676 271.876 200.729 268.809C192.363 262.095 184.587 255.901 174.027 253.147C179.258 251.552 183.975 248.43 189.258 247.139C189.693 242.318 190.079 237.241 193.646 233.586C195.24 231.952 197.633 230.477 200.008 230.708C201.598 230.862 203.019 231.841 203.907 233.141C206.461 236.88 205.765 240.426 205.153 244.592C207.503 240.947 209.234 237.929 209.605 233.477C218.046 229.545 223.627 222.574 231.413 217.874Z"/>
	<path fill="#FCFCFB" transform="scale(0.703125 0.703125)" d="M619.027 432.701C620.699 432.734 622.337 432.757 623.837 433.583C625.628 434.568 627.004 436.118 627.551 438.106C629.16 443.958 625.983 452.302 623.222 457.465C614.156 474.419 600.228 484.235 582.141 489.714C579.877 490.278 577.52 490.576 575.218 490.963C577.818 477.499 581.737 465.62 589.626 454.254C596.716 444.039 606.406 434.956 619.027 432.701Z"/>
	<path fill="#FCFCFB" transform="scale(0.703125 0.703125)" d="M936.398 433.582C938.253 433.43 940.192 433.117 941.896 434.057C943.659 435.031 944.862 436.544 945.326 438.509C946.914 445.239 942.608 454.851 939.133 460.461C930.483 474.426 916.479 485.065 900.498 488.868C897.539 489.322 894.549 489.512 891.567 489.749Q892.234 486.296 893.201 482.915Q894.168 479.533 895.429 476.25Q896.69 472.967 898.234 469.807Q899.778 466.647 901.593 463.635C909.391 450.611 921.127 437.433 936.398 433.582Z"/>
	<path fill="#FCFCFB" transform="scale(0.703125 0.703125)" d="M297.158 246.84C297.987 246.952 298.282 247.099 298.993 247.495C299.951 251.068 296.105 252.376 295.34 255.535L296.229 255.494C298.617 253.598 299.96 251.072 301.826 248.711L302.314 249.02C302.292 250.673 302.447 251.794 303.138 253.319C303.552 254.235 303.885 254.788 303.863 255.816L302.445 255.014C301.366 256.507 302.272 259.189 301.605 261.079C301.293 261.964 301.287 262.339 301.38 263.274C302.385 263.528 303.995 262.034 305.215 261.746C305.246 262.003 305.315 262.258 305.309 262.516C305.28 263.768 304.452 265.541 303.989 266.726C300.369 276.007 294.235 278.932 288.127 285.926C285.353 289.101 283.26 292.728 281.44 296.516C279.865 299.795 276.43 311.305 274.386 312.894C272.774 312.879 272.454 312.131 271.309 311.051C268.567 308.526 266.061 305.857 263.562 303.092C266.05 297.155 267.728 291.145 269.747 285.056C273.245 274.503 275.445 268.589 277.102 257.389C273.122 257.418 268.951 257.697 265.011 257.124C269.247 256.51 273.45 256.533 277.718 256.528L282.452 253.493C282.049 254.625 281.615 255.771 281.316 256.936C281.017 258.098 281.079 258.984 281.687 260.033L282.644 260.173C285.847 258.427 293.404 249.95 297.158 246.84Z"/>
	<path fill="#FCFCFB" transform="scale(0.703125 0.703125)" d="M190.214 694.703L191.096 695.064C192.108 697.409 192.287 700.351 192.703 702.865C193.946 710.37 194.755 718.726 197.469 725.858Q198.258 727.953 199.343 729.911Q200.427 731.869 201.785 733.649C203.556 735.978 208.381 739.253 208.71 741.949C208.314 742.529 207.934 743.112 207.426 743.602C203.248 747.637 194.136 748.509 188.576 748.138C182.95 746.674 178.592 744.196 174.06 740.608C175.034 739.266 176.018 737.912 176.789 736.439C183.228 724.143 177.494 707.871 173.383 695.7C178.975 695.236 184.611 695.02 190.214 694.703Z"/>
	<path fill="#FCFCFB" transform="scale(0.703125 0.703125)" d="M91.7869 687.79C98.4213 688.332 105.077 689.466 111.714 690.156C108.397 701.493 103.486 716.439 103.589 728.232C103.625 732.431 106.372 738.312 106.148 740.519C104.721 741.662 103.577 741.638 101.796 741.949C93.1167 741.874 86.5758 738.878 78.9408 735.046C86.5714 720.425 88.6769 703.82 91.7869 687.79Z"/>
	<path fill="#FCFCFB" transform="scale(0.703125 0.703125)" d="M539.19 366.837C539.984 366.956 540.715 367.198 541.484 367.427C542.57 368.387 543.155 369.184 543.326 370.643C545.404 388.335 503.866 437.364 492.846 450.505C492.303 451.158 491.908 451.657 491.205 452.144C491.21 451.951 491.196 451.758 491.22 451.567C491.591 448.657 494.234 444.484 495.457 441.642C502.798 424.579 525.359 376.545 539.19 366.837Z"/>
	<path fill="#FCFCFB" transform="scale(0.703125 0.703125)" d="M75.0694 739.188C80.1899 741.233 85.1466 743.923 90.4408 745.488C98.0362 747.732 103.335 746.945 110.178 743.217Q117.241 748.517 124.829 753.034C128.922 755.48 133.6 757.718 137.24 760.793L137.297 761.816C133.143 763.499 128.412 763.875 123.973 763.503C115.273 762.775 106.246 759.294 97.6893 757.338C89.608 755.49 81.0773 754.627 73.2082 752.021C72.5755 751.244 72.2351 750.739 72.0009 749.739C71.1962 746.303 73.2917 741.989 75.0694 739.188Z"/>
	<path fill="#FCFCFB" transform="scale(0.703125 0.703125)" d="M212.513 744.704C221.143 749.821 229.045 754.782 238.94 757.008L239.287 757.291C239.015 757.703 239.013 757.752 238.584 758.137C235.009 761.35 225.008 763.594 220.375 763.578C216.566 763.565 212.651 762.973 208.922 762.237C205.01 761.464 173.839 753.625 172.496 751.984C171.394 750.639 172.203 746.61 172.387 744.958C177.998 749.086 182.982 752.347 190.182 752.885C198.918 753.537 206.01 750.361 212.513 744.704Z"/>
	<path fill="#FCFCFB" transform="scale(0.703125 0.703125)" d="M167.521 261.258C167.707 261.28 167.897 261.283 168.08 261.324C176.521 263.203 192.856 274.69 197.251 281.883C191.958 278.162 186.93 274.048 180.581 272.34C175.348 270.933 170.131 271.771 165.469 274.491C152.342 282.148 147.462 300.21 143.871 313.885C141.677 322.814 140.062 331.765 138.559 340.833L130.591 343.169C132.133 336.382 134.806 329.635 137.017 323.032C142.353 307.088 147.515 289.87 156.113 275.326C159.246 270.026 163.129 265.544 167.521 261.258Z"/>
	<path fill="#FCFCFB" transform="scale(0.703125 0.703125)" d="M214.538 357.232C214.873 357.566 215.367 357.794 215.542 358.233C216.055 359.519 216.348 398.313 216.651 403.942C217.51 419.869 220.329 435.613 221.715 451.492C218.459 457.27 214.876 462.92 211.501 468.636L208.576 474.573C211.634 462.2 211.265 446.831 211.909 434.001Q214.114 395.647 214.538 357.232Z"/>
	<path fill="#FCFCFB" transform="scale(0.703125 0.703125)" d="M246.265 282.892C247.471 284.287 251.059 301.346 252.313 305.034C251.056 310.374 247.273 320.133 244.068 324.522C242.673 324.277 241.891 323.094 240.888 322.122C238.086 318.777 235.158 315.526 232.287 312.238C236.137 301.997 240.682 292.305 246.265 282.892Z"/>
	<path fill="#FCFCFB" transform="scale(0.703125 0.703125)" d="M257.808 305.29C259.858 306.501 261.682 308.412 263.452 310.004C270.421 316.276 275.416 322.182 280.41 330.058C278.587 332.036 276.475 333.804 274.489 335.621L273.007 336.35C265.875 334.963 257.558 322.514 253.087 317.091C254.505 313.105 256.2 309.204 257.808 305.29Z"/>
	<path fill="#FCFCFB" transform="scale(0.703125 0.703125)" d="M172.453 256.602C176.724 256.197 181.366 258.558 184.894 260.84C189.77 263.996 198.935 271.505 200.164 277.324C193.991 271.994 187.873 266.83 181.07 262.305C178.884 260.851 173.233 258.678 172.453 256.602Z"/>
	<path fill="#FCFCFB" transform="scale(0.703125 0.703125)" d="M251.371 280.853C252.511 280.826 253.59 280.903 254.723 281.005C255.226 281.829 255.136 281.479 255.24 282.409C255.395 283.796 255.399 285.278 255.839 286.617C256.893 289.825 260.494 294.628 260.265 297.94C260.221 298.587 259.64 299.694 259.409 300.343C258.468 300.905 258.463 300.896 257.376 300.743C253.299 297.216 252.37 286.068 251.371 280.853Z"/>
	<path fill="#FCFCFB" transform="scale(0.703125 0.703125)" d="M262.699 232.739C265.791 232.661 268.616 232.565 271.635 233.351L271.763 233.692C268.094 234.104 264.369 234.307 260.719 234.835C259.41 235.024 258.259 235.159 257.46 236.244C258.931 239.072 263.095 235.196 265.234 236.38L264.341 237.889C262.436 239.079 261.397 239.195 259.195 239.221C257.543 239.241 255.449 239.428 254.196 238.2Q255.4 236.545 256.579 234.872L256.272 234.155L255.292 234.169L254.798 235.222L253.781 233.811L251.19 233.745L250.769 233.272L251.185 232.822L251.532 233.045C255.231 232.791 258.991 232.829 262.699 232.739Z"/>
	<path fill="#FCFCFB" transform="scale(0.703125 0.703125)" d="M258.308 280.994L267.324 280.984L264.533 288.767L263.642 290.762C262.643 290.782 262.811 290.974 262.147 290.396C259.713 288.278 258.514 284.086 258.308 280.994Z"/>
	<path transform="scale(0.703125 0.703125)" d="M834.929 581.679C840.256 580.762 846.769 581.77 851.769 583.758Q852.429 584.015 853.075 584.306Q853.72 584.596 854.351 584.919Q854.981 585.242 855.594 585.596Q856.207 585.95 856.802 586.335Q857.396 586.72 857.971 587.134Q858.545 587.548 859.098 587.991Q859.65 588.434 860.18 588.904Q860.709 589.375 861.214 589.871Q861.719 590.367 862.198 590.889Q862.677 591.41 863.13 591.955Q863.582 592.5 864.006 593.067Q864.43 593.634 864.825 594.222Q865.22 594.81 865.585 595.417Q865.949 596.024 866.283 596.649Q866.616 597.273 866.918 597.914Q867.219 598.555 867.488 599.21C872.194 610.872 869.152 624.93 864.296 636.02C853.019 661.773 827.822 689.039 804.16 704.06C796.668 708.815 788.711 712.315 780.471 715.523C783.226 717.85 786.195 720.107 789.233 722.049C812.394 736.858 842.857 733.347 868.396 727.74C865.152 713.513 862.772 701.757 868.996 687.762Q869.403 686.85 869.854 685.959Q870.306 685.068 870.802 684.201Q871.297 683.333 871.836 682.492Q872.374 681.65 872.954 680.837Q873.533 680.023 874.153 679.24Q874.773 678.456 875.431 677.705Q876.089 676.953 876.783 676.235Q877.478 675.517 878.207 674.835Q878.937 674.153 879.7 673.508Q880.463 672.863 881.257 672.257Q882.051 671.651 882.874 671.085Q883.697 670.519 884.548 669.995Q885.398 669.472 886.274 668.991Q887.15 668.51 888.048 668.074Q888.947 667.637 889.866 667.246Q890.785 666.856 891.723 666.511C900.144 663.335 910.057 663.472 918.252 667.288C925.07 670.463 930.941 676.523 933.367 683.688C935.899 691.164 934.86 700.186 931.237 707.142C923.11 722.749 905.41 729.942 889.573 734.874C892.885 739.138 896.817 742.653 901.591 745.206C923.034 756.674 949.608 747.153 970.156 738.162C975.763 735.709 981.216 732.031 987.092 730.332C989.611 729.603 992.116 729.211 994.513 730.484C995.392 731.431 995.759 732.24 995.743 733.537C995.719 735.481 995.115 738.002 993.573 739.312C989.746 742.564 984.162 744.768 979.609 746.817C961.772 754.844 942.042 762.485 922.191 762.008C902.289 761.531 888.483 752.183 875.112 738.168C862.585 740.913 850.411 743.622 837.549 744.338C818.851 745.379 796.329 742.591 780.766 731.295C775.929 727.784 771.956 723.205 767.521 719.217C734.475 722.515 701.541 724.003 668.375 725.526Q517.79 732.346 368.015 749.362L308.288 756.106C299.047 757.147 289.324 759.022 280.078 759.3C278.765 759.339 277.449 759.287 276.235 758.732C274.8 758.075 273.839 757.027 273.429 755.495C273.008 753.916 273.403 751.369 274.435 750.078C277.661 746.042 315.897 743.591 323.191 742.736Q463.44 726.126 604.343 716.542Q652.277 713.497 700.269 711.551C720.014 710.634 740.161 710.398 759.758 707.821C757.303 701.818 755.319 695.93 754.362 689.5C750.803 665.605 759.581 642.464 773.699 623.468C787.827 604.46 810.896 585.124 834.929 581.679Z"/>
	<path fill="#FCFCFB" transform="scale(0.703125 0.703125)" d="M835.317 593.114C838.554 592.919 841.574 592.765 844.736 593.705C849.152 595.018 853.828 598.309 855.903 602.514C859.207 609.208 858.519 618.481 856.255 625.396C846.279 655.859 813.278 686.71 785.278 701.046C781.047 702.919 776.81 704.657 772.467 706.254C769.63 700.391 767.34 694.347 766.243 687.903C762.883 668.159 770.219 648.716 781.552 632.78C793.18 616.431 814.998 596.605 835.317 593.114Z"/>
	<path fill="#FCFCFB" transform="scale(0.703125 0.703125)" d="M900.704 676.608C904.591 676.355 908.149 676.433 911.888 677.741C916.149 679.231 919.776 682.169 921.722 686.285C923.759 690.591 923.637 695.589 921.896 699.968C917.782 710.313 906.413 715.555 896.859 719.602C891.987 721.592 886.921 722.939 881.805 724.131C879.412 720.458 877.978 715.951 877.219 711.651C875.753 703.342 877.299 694.784 882.266 687.87C886.909 681.408 892.982 677.96 900.704 676.608Z"/>
	<path transform="scale(0.703125 0.703125)" d="M461.194 598.656C467.706 598.255 474.222 599.781 479.551 603.637C489.11 610.556 493.745 622.379 495.69 633.625C498.235 648.344 496.428 665.073 487.582 677.49C481.944 685.404 474.746 688.798 465.429 690.352C458.747 690.707 452.465 688.887 446.962 685.108C437.532 678.633 433.074 667.803 431.191 656.862C428.599 641.795 430.307 624.479 439.463 611.792C445.027 604.083 451.783 600.139 461.194 598.656Z"/>
	<path fill="#FCFCFB" transform="scale(0.703125 0.703125)" d="M459.703 609.574C463.939 609.162 467.437 609.448 471.225 611.545C477.857 615.216 481.675 622.5 483.689 629.542C487.154 641.655 487.179 657.556 480.754 668.739C477.672 674.104 473.419 677.817 467.41 679.408C463.399 680.361 459.748 680.024 455.995 678.232C449.543 675.152 445.594 668.519 443.329 661.988C439.13 649.884 439.471 634.354 445.141 622.757C448.259 616.381 453.008 611.885 459.703 609.574Z"/>
	<path transform="scale(0.703125 0.703125)" d="M382.826 599.64C390.464 598.859 400.432 599.171 407.671 602.018C413.585 604.344 418.445 608.489 420.849 614.471C423.461 620.972 423.095 629.881 420.235 636.241C417.466 642.399 412.316 645.898 406.261 648.322C411.236 653.438 423.178 679.228 423.384 686.304C422.938 687.611 422.338 688.425 421.172 689.163C420.069 689.861 418.749 690.144 417.487 689.722C412.586 688.085 409.831 678.664 407.998 674.238C405.518 668.743 403.699 662.918 401.131 657.478C399.552 654.134 397.176 651.34 393.558 650.207C391.079 649.431 387.144 649.08 384.772 650.235C382.971 659.475 385.677 674.522 384.256 684.676C383.962 686.783 383.157 688.797 381.236 689.933C380.288 690.495 379.233 690.568 378.212 690.153C376.211 689.339 374.736 686.989 374.196 684.976C373.241 681.416 374.038 675.631 374.051 671.857L374.181 637.682C374.2 627.83 373.589 617.755 374.075 607.936C374.152 606.374 374.255 603.849 375.18 602.552C376.849 600.212 380.218 600.03 382.826 599.64Z"/>
	<path fill="#FCFCFB" transform="scale(0.703125 0.703125)" d="M387.06 609.692C393.593 609.361 402.751 609.41 407.811 614.127C410.747 616.864 411.797 620.685 411.797 624.599C411.797 629.945 410.249 633.976 406.435 637.709C400.089 641.68 391.813 640.603 384.639 640.463C384.549 635.229 383.535 614.664 385.031 610.822C385.372 609.948 386.239 609.973 387.06 609.692Z"/>
	<path transform="scale(0.703125 0.703125)" d="M329.247 599.733Q332.541 599.692 335.835 599.699C344.853 599.732 354.187 600.443 360.801 607.39C365.561 612.391 367.556 619.144 367.456 625.937C367.354 632.879 365.218 640.127 359.992 644.949C351.316 652.953 337.572 652.421 326.643 651.981L326.598 661.355C326.614 666.092 327.47 682.33 326.415 685.749C325.9 687.422 324.924 688.748 323.286 689.434C321.817 690.049 320.058 689.921 318.733 689.023C316.874 687.762 316.505 685.799 316.32 683.72C315.328 672.551 316.1 660.739 316.061 649.501C316.012 635.537 315.248 621.156 316.074 607.232C316.166 605.691 316.056 602.992 317.254 601.922C319.945 599.52 325.863 599.918 329.247 599.733Z"/>
	<path fill="#FCFCFB" transform="scale(0.703125 0.703125)" d="M326.601 610.288C334.377 609.649 346.053 608.605 352.389 614.129C355.133 616.523 356.327 619.891 356.539 623.457C356.887 629.276 355.77 633.23 351.907 637.645C345.225 643.346 334.797 642.1 326.612 641.771C326.272 631.325 326.345 620.736 326.601 610.288Z"/>
	<path transform="scale(0.703125 0.703125)" d="M542.1 600.084C548.239 599.772 579.585 598.904 583.488 601.459C584.547 602.152 585.373 602.961 585.575 604.266C585.798 605.71 584.972 607.786 583.882 608.772C581.253 611.15 554.812 609.899 549.807 609.932L549.707 630.517C555.199 630.552 576.44 629.505 579.696 631.503C581.018 632.314 582.203 633.819 582.377 635.403C582.525 636.755 582.293 637.977 581.333 639C578.128 642.417 555.069 640.546 549.643 640.495L549.625 658.25L549.591 678.105C555.363 678.094 579.64 677.145 583.412 678.898C584.462 679.386 585.616 680.898 585.997 681.978C586.394 683.104 586.48 684.046 585.815 685.099C584.691 686.875 582.403 687.702 580.464 688.155C575.945 689.211 545.505 689.506 542.316 687.421C540.863 686.47 539.897 685.191 539.644 683.458C538.537 675.862 539.438 660.051 539.445 651.637L539.483 623.041C539.494 617.334 539.179 611.357 539.889 605.697C540.183 603.349 540.673 601.964 542.1 600.084Z"/>
	<path transform="scale(0.703125 0.703125)" d="M622.784 598.668C624.58 598.535 626.241 598.639 628.019 598.875C634.677 599.76 642.466 603.443 646.428 608.974C647.527 610.507 648.441 612.494 647.946 614.418C647.557 615.932 646.291 617.157 644.939 617.866C643.831 618.448 642.604 618.45 641.5 617.889C637.12 615.662 636.021 611.614 629.515 609.811C624.762 608.494 619.835 609.444 615.662 611.986C608.41 616.405 604.319 624.547 602.563 632.61C600.029 644.248 601.321 659.803 608.164 669.874C611.266 674.44 615.727 678.066 621.246 679.07C627.467 680.203 632.78 678.446 637.8 674.884C638.962 673.744 640.255 672.384 641.677 671.581C642.893 670.894 643.965 671.041 645.26 671.401C646.411 672.318 646.94 672.871 647.234 674.355C647.691 676.659 646.633 679.288 645.322 681.134C641.792 686.107 635.458 688.889 629.589 689.859C621.692 691.165 612.99 689.263 606.544 684.501C596.894 677.373 592.666 665.593 591.098 654.091C589.146 639.769 590.767 622.967 599.897 611.197C605.801 603.586 613.387 599.926 622.784 598.668Z"/>
	<path transform="scale(0.703125 0.703125)" d="M656.447 600.169C662.669 599.764 700.263 599.226 703.736 600.465C704.894 600.879 705.822 601.651 706.259 602.831C706.876 604.497 706.719 606.61 705.942 608.169C702.071 611.941 690.723 610.295 685.661 610.283L685.589 671.481C685.577 675.559 686.861 683.559 684.543 686.986C683.713 688.212 682.507 688.931 681.031 689.098C679.774 689.241 678.639 689.053 677.669 688.179C676.515 687.138 675.997 685.601 675.802 684.104C674.762 676.126 675.483 667.217 675.483 659.129L675.417 610.402C670.85 610.319 666.271 610.762 661.705 610.611C659.181 610.528 655.87 610.235 654.213 608.024C653.39 606.925 653.276 605.565 653.507 604.255C653.86 602.259 654.814 601.253 656.447 600.169Z"/>
	<path transform="scale(0.703125 0.703125)" d="M520.498 599.476C522.349 599.431 524.15 599.539 525.593 600.866C526.926 602.091 527.208 604.274 527.393 605.978C528.228 613.656 527.36 622.099 527.301 629.85C527.216 641.194 527.706 652.579 527.361 663.915C527.117 671.949 526.007 680.402 519.657 686.101C515.06 690.227 509.712 691.066 503.78 690.633C502.845 690.15 501.83 689.687 501.007 689.023C499.161 687.536 497.91 684.439 497.73 682.138C498.015 681.428 498.067 680.881 498.734 680.432C501.045 678.874 504.629 680.262 507.208 680.462C509.255 680.621 511.353 680.262 512.941 678.875C515.2 676.903 515.982 673.445 516.438 670.618C517.364 664.874 517.078 658.929 517.049 653.129L517.002 621.98C516.998 616.162 516.587 610.034 517.279 604.269C517.593 601.65 518.49 601.016 520.498 599.476Z"/>
</svg>
